<?xml version="1.0" encoding="UTF-8"?>
<!DOCTYPE svg PUBLIC "-//W3C//DTD SVG 1.1//EN" "http://www.w3.org/Graphics/SVG/1.1/DTD/svg11.dtd">
<svg version="1.2" width="200mm" height="170mm" viewBox="0 0 20000 17000" preserveAspectRatio="xMidYMid" fill-rule="evenodd" clip-path="url(#presentation_clip_path)" stroke-width="28.222" stroke-linejoin="round" xmlns="http://www.w3.org/2000/svg" xmlns:ooo="http://xml.openoffice.org/svg/export" xmlns:xlink="http://www.w3.org/1999/xlink" xml:space="preserve">
 <defs class="ClipPathGroup">
  <clipPath id="presentation_clip_path" clipPathUnits="userSpaceOnUse">
   <rect x="0" y="0" width="20000" height="17000"/>
  </clipPath>
 </defs>
 <defs class="TextShapeIndex">
  <g ooo:slide="id1" ooo:id-list="id3 id4 id5 id6 id7 id8 id9 id10 id11 id12 id13 id14 id15 id16 id17 id18 id19 id20 id21 id22 id23 id24 id25 id26 id27 id28 id29 id30 id31 id32 id33 id34"/>
 </defs>
 <defs class="EmbeddedBulletChars">
  <g id="bullet-char-template(57356)" transform="scale(0.00048828125,-0.00048828125)">
   <path d="M 580,1141 L 1163,571 580,0 -4,571 580,1141 Z"/>
  </g>
  <g id="bullet-char-template(57354)" transform="scale(0.00048828125,-0.00048828125)">
   <path d="M 8,1128 L 1137,1128 1137,0 8,0 8,1128 Z"/>
  </g>
  <g id="bullet-char-template(10146)" transform="scale(0.00048828125,-0.00048828125)">
   <path d="M 174,0 L 602,739 174,1481 1456,739 174,0 Z M 1358,739 L 309,1346 659,739 1358,739 Z"/>
  </g>
  <g id="bullet-char-template(10132)" transform="scale(0.00048828125,-0.00048828125)">
   <path d="M 2015,739 L 1276,0 717,0 1260,543 174,543 174,936 1260,936 717,1481 1274,1481 2015,739 Z"/>
  </g>
  <g id="bullet-char-template(10007)" transform="scale(0.00048828125,-0.00048828125)">
   <path d="M 0,-2 C -7,14 -16,27 -25,37 L 356,567 C 262,823 215,952 215,954 215,979 228,992 255,992 264,992 276,990 289,987 310,991 331,999 354,1012 L 381,999 492,748 772,1049 836,1024 860,1049 C 881,1039 901,1025 922,1006 886,937 835,863 770,784 769,783 710,716 594,584 L 774,223 C 774,196 753,168 711,139 L 727,119 C 717,90 699,76 672,76 641,76 570,178 457,381 L 164,-76 C 142,-110 111,-127 72,-127 30,-127 9,-110 8,-76 1,-67 -2,-52 -2,-32 -2,-23 -1,-13 0,-2 Z"/>
  </g>
  <g id="bullet-char-template(10004)" transform="scale(0.00048828125,-0.00048828125)">
   <path d="M 285,-33 C 182,-33 111,30 74,156 52,228 41,333 41,471 41,549 55,616 82,672 116,743 169,778 240,778 293,778 328,747 346,684 L 369,508 C 377,444 397,411 428,410 L 1163,1116 C 1174,1127 1196,1133 1229,1133 1271,1133 1292,1118 1292,1087 L 1292,965 C 1292,929 1282,901 1262,881 L 442,47 C 390,-6 338,-33 285,-33 Z"/>
  </g>
  <g id="bullet-char-template(9679)" transform="scale(0.00048828125,-0.00048828125)">
   <path d="M 813,0 C 632,0 489,54 383,161 276,268 223,411 223,592 223,773 276,916 383,1023 489,1130 632,1184 813,1184 992,1184 1136,1130 1245,1023 1353,916 1407,772 1407,592 1407,412 1353,268 1245,161 1136,54 992,0 813,0 Z"/>
  </g>
  <g id="bullet-char-template(8226)" transform="scale(0.00048828125,-0.00048828125)">
   <path d="M 346,457 C 273,457 209,483 155,535 101,586 74,649 74,723 74,796 101,859 155,911 209,963 273,989 346,989 419,989 480,963 531,910 582,859 608,796 608,723 608,648 583,586 532,535 482,483 420,457 346,457 Z"/>
  </g>
  <g id="bullet-char-template(8211)" transform="scale(0.00048828125,-0.00048828125)">
   <path d="M -4,459 L 1135,459 1135,606 -4,606 -4,459 Z"/>
  </g>
 </defs>
 <defs class="TextEmbeddedBitmaps"/>
 <g>
  <g id="id2" class="Master_Slide">
   <g id="bg-id2" class="Background"/>
   <g id="bo-id2" class="BackgroundObjects"/>
  </g>
 </g>
 <g class="SlideGroup">
  <g>
   <g id="id1" class="Slide" clip-path="url(#presentation_clip_path)">
    <g class="Page">
     <g class="com.sun.star.drawing.CustomShape">
      <g id="id3">
       <path fill="rgb(197,0,11)" stroke="none" d="M 10000,9300 L 9400,9300 9400,8100 10600,8100 10600,9300 10000,9300 Z"/>
       <path fill="none" stroke="rgb(51,51,51)" d="M 10000,9300 L 9400,9300 9400,8100 10600,8100 10600,9300 10000,9300 Z"/>
       <text class="TextShape"><tspan class="TextParagraph" font-family="Arial, sans-serif" font-size="635px" font-weight="700"><tspan class="TextPosition" x="9543" y="8922"><tspan fill="rgb(0,0,0)" stroke="none">DB</tspan></tspan></tspan></text>
      </g>
     </g>
     <g class="com.sun.star.drawing.CustomShape">
      <g id="id4">
       <path fill="rgb(174,207,0)" stroke="none" d="M 9950,3900 C 10545,3900 11000,4355 11000,4950 11000,5545 10545,6000 9950,6000 9355,6000 8900,5545 8900,4950 8900,4355 9355,3900 9950,3900 Z M 8900,3900 L 8900,3900 Z M 11001,6001 L 11001,6001 Z"/>
       <path fill="none" stroke="rgb(51,51,51)" d="M 9950,3900 C 10545,3900 11000,4355 11000,4950 11000,5545 10545,6000 9950,6000 9355,6000 8900,5545 8900,4950 8900,4355 9355,3900 9950,3900 Z"/>
       <text class="TextShape"><tspan class="TextParagraph" font-family="Arial, sans-serif" font-size="635px" font-weight="700"><tspan class="TextPosition" x="9686" y="5172"><tspan fill="rgb(0,0,0)" stroke="none">M</tspan></tspan></tspan></text>
      </g>
     </g>
     <g class="com.sun.star.drawing.CustomShape">
      <g id="id5">
       <path fill="rgb(174,207,0)" stroke="none" d="M 13850,10200 C 14445,10200 14900,10655 14900,11250 14900,11845 14445,12300 13850,12300 13255,12300 12800,11845 12800,11250 12800,10655 13255,10200 13850,10200 Z M 12800,10200 L 12800,10200 Z M 14901,12301 L 14901,12301 Z"/>
       <path fill="none" stroke="rgb(51,51,51)" d="M 13850,10200 C 14445,10200 14900,10655 14900,11250 14900,11845 14445,12300 13850,12300 13255,12300 12800,11845 12800,11250 12800,10655 13255,10200 13850,10200 Z"/>
       <text class="TextShape"><tspan class="TextParagraph" font-family="Arial, sans-serif" font-size="635px" font-weight="700"><tspan class="TextPosition" x="13586" y="11472"><tspan fill="rgb(0,0,0)" stroke="none">M</tspan></tspan></tspan></text>
      </g>
     </g>
     <g class="com.sun.star.drawing.CustomShape">
      <g id="id6">
       <path fill="rgb(174,207,0)" stroke="none" d="M 6250,10200 C 6845,10200 7300,10655 7300,11250 7300,11845 6845,12300 6250,12300 5655,12300 5200,11845 5200,11250 5200,10655 5655,10200 6250,10200 Z M 5200,10200 L 5200,10200 Z M 7301,12301 L 7301,12301 Z"/>
       <path fill="none" stroke="rgb(51,51,51)" d="M 6250,10200 C 6845,10200 7300,10655 7300,11250 7300,11845 6845,12300 6250,12300 5655,12300 5200,11845 5200,11250 5200,10655 5655,10200 6250,10200 Z"/>
       <text class="TextShape"><tspan class="TextParagraph" font-family="Arial, sans-serif" font-size="635px" font-weight="700"><tspan class="TextPosition" x="5986" y="11472"><tspan fill="rgb(0,0,0)" stroke="none">M</tspan></tspan></tspan></text>
      </g>
     </g>
     <g class="com.sun.star.drawing.CustomShape">
      <g id="id7">
       <path fill="rgb(0,128,0)" stroke="none" d="M 7450,2600 C 7705,2600 7900,2795 7900,3050 7900,3305 7705,3500 7450,3500 7195,3500 7000,3305 7000,3050 7000,2795 7195,2600 7450,2600 Z M 7000,2600 L 7000,2600 Z M 7901,3501 L 7901,3501 Z"/>
       <path fill="none" stroke="rgb(51,51,51)" d="M 7450,2600 C 7705,2600 7900,2795 7900,3050 7900,3305 7705,3500 7450,3500 7195,3500 7000,3305 7000,3050 7000,2795 7195,2600 7450,2600 Z"/>
       <text class="TextShape"><tspan class="TextParagraph" font-family="Arial, sans-serif" font-size="635px" font-weight="700"><tspan class="TextPosition" x="7221" y="3272"><tspan fill="rgb(0,0,0)" stroke="none">C</tspan></tspan></tspan></text>
      </g>
     </g>
     <g class="com.sun.star.drawing.CustomShape">
      <g id="id8">
       <path fill="rgb(0,128,0)" stroke="none" d="M 9950,1500 C 10205,1500 10400,1695 10400,1950 10400,2205 10205,2400 9950,2400 9695,2400 9500,2205 9500,1950 9500,1695 9695,1500 9950,1500 Z M 9500,1500 L 9500,1500 Z M 10401,2401 L 10401,2401 Z"/>
       <path fill="none" stroke="rgb(51,51,51)" d="M 9950,1500 C 10205,1500 10400,1695 10400,1950 10400,2205 10205,2400 9950,2400 9695,2400 9500,2205 9500,1950 9500,1695 9695,1500 9950,1500 Z"/>
       <text class="TextShape"><tspan class="TextParagraph" font-family="Arial, sans-serif" font-size="635px" font-weight="700"><tspan class="TextPosition" x="9721" y="2172"><tspan fill="rgb(0,0,0)" stroke="none">C</tspan></tspan></tspan></text>
      </g>
     </g>
     <g class="com.sun.star.drawing.CustomShape">
      <g id="id9">
       <path fill="rgb(0,128,0)" stroke="none" d="M 12450,2600 C 12705,2600 12900,2795 12900,3050 12900,3305 12705,3500 12450,3500 12195,3500 12000,3305 12000,3050 12000,2795 12195,2600 12450,2600 Z M 12000,2600 L 12000,2600 Z M 12901,3501 L 12901,3501 Z"/>
       <path fill="none" stroke="rgb(51,51,51)" d="M 12450,2600 C 12705,2600 12900,2795 12900,3050 12900,3305 12705,3500 12450,3500 12195,3500 12000,3305 12000,3050 12000,2795 12195,2600 12450,2600 Z"/>
       <text class="TextShape"><tspan class="TextParagraph" font-family="Arial, sans-serif" font-size="635px" font-weight="700"><tspan class="TextPosition" x="12221" y="3272"><tspan fill="rgb(0,0,0)" stroke="none">C</tspan></tspan></tspan></text>
      </g>
     </g>
     <g class="com.sun.star.drawing.ConnectorShape">
      <g id="id10">
       <path fill="none" stroke="rgb(51,51,51)" d="M 9400,8700 L 6993,10507"/>
      </g>
     </g>
     <g class="com.sun.star.drawing.ConnectorShape">
      <g id="id11">
       <path fill="none" stroke="rgb(51,51,51)" d="M 10000,8100 L 9950,6000"/>
      </g>
     </g>
     <g class="com.sun.star.drawing.ConnectorShape">
      <g id="id12">
       <path fill="none" stroke="rgb(51,51,51)" d="M 10600,8700 L 13107,10507"/>
      </g>
     </g>
     <g class="com.sun.star.drawing.ConnectorShape">
      <g id="id13">
       <path fill="none" stroke="rgb(51,51,51)" d="M 7769,3369 L 9207,4207"/>
      </g>
     </g>
     <g class="com.sun.star.drawing.ConnectorShape">
      <g id="id14">
       <path fill="none" stroke="rgb(51,51,51)" d="M 9950,2400 L 9950,3900"/>
      </g>
     </g>
     <g class="com.sun.star.drawing.ConnectorShape">
      <g id="id15">
       <path fill="none" stroke="rgb(51,51,51)" d="M 12131,3369 L 10693,4207"/>
      </g>
     </g>
     <g class="com.sun.star.drawing.CustomShape">
      <g id="id16">
       <path fill="rgb(0,128,0)" stroke="none" d="M 2750,10800 C 3005,10800 3200,10995 3200,11250 3200,11505 3005,11700 2750,11700 2495,11700 2300,11505 2300,11250 2300,10995 2495,10800 2750,10800 Z M 2300,10800 L 2300,10800 Z M 3201,11701 L 3201,11701 Z"/>
       <path fill="none" stroke="rgb(51,51,51)" d="M 2750,10800 C 3005,10800 3200,10995 3200,11250 3200,11505 3005,11700 2750,11700 2495,11700 2300,11505 2300,11250 2300,10995 2495,10800 2750,10800 Z"/>
       <text class="TextShape"><tspan class="TextParagraph" font-family="Arial, sans-serif" font-size="635px" font-weight="700"><tspan class="TextPosition" x="2521" y="11472"><tspan fill="rgb(0,0,0)" stroke="none">C</tspan></tspan></tspan></text>
      </g>
     </g>
     <g class="com.sun.star.drawing.CustomShape">
      <g id="id17">
       <path fill="rgb(0,128,0)" stroke="none" d="M 3850,13100 C 4105,13100 4300,13295 4300,13550 4300,13805 4105,14000 3850,14000 3595,14000 3400,13805 3400,13550 3400,13295 3595,13100 3850,13100 Z M 3400,13100 L 3400,13100 Z M 4301,14001 L 4301,14001 Z"/>
       <path fill="none" stroke="rgb(51,51,51)" d="M 3850,13100 C 4105,13100 4300,13295 4300,13550 4300,13805 4105,14000 3850,14000 3595,14000 3400,13805 3400,13550 3400,13295 3595,13100 3850,13100 Z"/>
       <text class="TextShape"><tspan class="TextParagraph" font-family="Arial, sans-serif" font-size="635px" font-weight="700"><tspan class="TextPosition" x="3621" y="13772"><tspan fill="rgb(0,0,0)" stroke="none">C</tspan></tspan></tspan></text>
      </g>
     </g>
     <g class="com.sun.star.drawing.CustomShape">
      <g id="id18">
       <path fill="rgb(0,128,0)" stroke="none" d="M 6250,14200 C 6505,14200 6700,14395 6700,14650 6700,14905 6505,15100 6250,15100 5995,15100 5800,14905 5800,14650 5800,14395 5995,14200 6250,14200 Z M 5800,14200 L 5800,14200 Z M 6701,15101 L 6701,15101 Z"/>
       <path fill="none" stroke="rgb(51,51,51)" d="M 6250,14200 C 6505,14200 6700,14395 6700,14650 6700,14905 6505,15100 6250,15100 5995,15100 5800,14905 5800,14650 5800,14395 5995,14200 6250,14200 Z"/>
       <text class="TextShape"><tspan class="TextParagraph" font-family="Arial, sans-serif" font-size="635px" font-weight="700"><tspan class="TextPosition" x="6021" y="14872"><tspan fill="rgb(0,0,0)" stroke="none">C</tspan></tspan></tspan></text>
      </g>
     </g>
     <g class="com.sun.star.drawing.ConnectorShape">
      <g id="id19">
       <path fill="none" stroke="rgb(51,51,51)" d="M 3200,11250 L 5200,11250"/>
      </g>
     </g>
     <g class="com.sun.star.drawing.ConnectorShape">
      <g id="id20">
       <path fill="none" stroke="rgb(51,51,51)" d="M 4169,13231 L 5507,11993"/>
      </g>
     </g>
     <g class="com.sun.star.drawing.ConnectorShape">
      <g id="id21">
       <path fill="none" stroke="rgb(51,51,51)" d="M 6250,14200 L 6250,12300"/>
      </g>
     </g>
     <g class="com.sun.star.drawing.CustomShape">
      <g id="id22">
       <path fill="rgb(0,128,0)" stroke="none" d="M 13950,14200 C 14205,14200 14400,14395 14400,14650 14400,14905 14205,15100 13950,15100 13695,15100 13500,14905 13500,14650 13500,14395 13695,14200 13950,14200 Z M 13500,14200 L 13500,14200 Z M 14401,15101 L 14401,15101 Z"/>
       <path fill="none" stroke="rgb(51,51,51)" d="M 13950,14200 C 14205,14200 14400,14395 14400,14650 14400,14905 14205,15100 13950,15100 13695,15100 13500,14905 13500,14650 13500,14395 13695,14200 13950,14200 Z"/>
       <text class="TextShape"><tspan class="TextParagraph" font-family="Arial, sans-serif" font-size="635px" font-weight="700"><tspan class="TextPosition" x="13721" y="14872"><tspan fill="rgb(0,0,0)" stroke="none">C</tspan></tspan></tspan></text>
      </g>
     </g>
     <g class="com.sun.star.drawing.CustomShape">
      <g id="id23">
       <path fill="rgb(0,128,0)" stroke="none" d="M 2750,10800 C 3005,10800 3200,10995 3200,11250 3200,11505 3005,11700 2750,11700 2495,11700 2300,11505 2300,11250 2300,10995 2495,10800 2750,10800 Z M 2300,10800 L 2300,10800 Z M 3201,11701 L 3201,11701 Z"/>
       <path fill="none" stroke="rgb(51,51,51)" d="M 2750,10800 C 3005,10800 3200,10995 3200,11250 3200,11505 3005,11700 2750,11700 2495,11700 2300,11505 2300,11250 2300,10995 2495,10800 2750,10800 Z"/>
       <text class="TextShape"><tspan class="TextParagraph" font-family="Arial, sans-serif" font-size="635px" font-weight="700"><tspan class="TextPosition" x="2521" y="11472"><tspan fill="rgb(0,0,0)" stroke="none">C</tspan></tspan></tspan></text>
      </g>
     </g>
     <g class="com.sun.star.drawing.CustomShape">
      <g id="id24">
       <path fill="rgb(0,128,0)" stroke="none" d="M 17650,10800 C 17905,10800 18100,10995 18100,11250 18100,11505 17905,11700 17650,11700 17395,11700 17200,11505 17200,11250 17200,10995 17395,10800 17650,10800 Z M 17200,10800 L 17200,10800 Z M 18101,11701 L 18101,11701 Z"/>
       <path fill="none" stroke="rgb(51,51,51)" d="M 17650,10800 C 17905,10800 18100,10995 18100,11250 18100,11505 17905,11700 17650,11700 17395,11700 17200,11505 17200,11250 17200,10995 17395,10800 17650,10800 Z"/>
       <text class="TextShape"><tspan class="TextParagraph" font-family="Arial, sans-serif" font-size="635px" font-weight="700"><tspan class="TextPosition" x="17421" y="11472"><tspan fill="rgb(0,0,0)" stroke="none">C</tspan></tspan></tspan></text>
      </g>
     </g>
     <g class="com.sun.star.drawing.CustomShape">
      <g id="id25">
       <path fill="rgb(0,128,0)" stroke="none" d="M 16442,13122 C 16697,13122 16892,13317 16892,13572 16892,13827 16697,14022 16442,14022 16187,14022 15992,13827 15992,13572 15992,13317 16187,13122 16442,13122 Z M 15992,13122 L 15992,13122 Z M 16893,14023 L 16893,14023 Z"/>
       <path fill="none" stroke="rgb(51,51,51)" d="M 16442,13122 C 16697,13122 16892,13317 16892,13572 16892,13827 16697,14022 16442,14022 16187,14022 15992,13827 15992,13572 15992,13317 16187,13122 16442,13122 Z"/>
       <text class="TextShape"><tspan class="TextParagraph" font-family="Arial, sans-serif" font-size="635px" font-weight="700"><tspan class="TextPosition" x="16213" y="13794"><tspan fill="rgb(0,0,0)" stroke="none">C</tspan></tspan></tspan></text>
      </g>
     </g>
     <g class="com.sun.star.drawing.ConnectorShape">
      <g id="id26">
       <path fill="none" stroke="rgb(51,51,51)" d="M 13850,12300 L 13950,14200"/>
      </g>
     </g>
     <g class="com.sun.star.drawing.ConnectorShape">
      <g id="id27">
       <path fill="none" stroke="rgb(51,51,51)" d="M 14593,11993 L 16123,13253"/>
      </g>
     </g>
     <g class="com.sun.star.drawing.ConnectorShape">
      <g id="id28">
       <path fill="none" stroke="rgb(51,51,51)" d="M 14900,11250 L 17200,11250"/>
      </g>
     </g>
     <g class="com.sun.star.drawing.CustomShape">
      <g id="id29">
       <path fill="rgb(0,128,0)" stroke="none" d="M 15450,1700 C 15648,1700 15800,1852 15800,2050 15800,2248 15648,2400 15450,2400 15252,2400 15100,2248 15100,2050 15100,1852 15252,1700 15450,1700 Z M 15100,1700 L 15100,1700 Z M 15801,2401 L 15801,2401 Z"/>
       <path fill="none" stroke="rgb(51,51,51)" d="M 15450,1700 C 15648,1700 15800,1852 15800,2050 15800,2248 15648,2400 15450,2400 15252,2400 15100,2248 15100,2050 15100,1852 15252,1700 15450,1700 Z"/>
       <text class="TextShape"><tspan class="TextParagraph" font-family="Arial, sans-serif" font-size="494px" font-weight="700"><tspan class="TextPosition" x="15272" y="2224"><tspan fill="rgb(0,0,0)" stroke="none">C</tspan></tspan></tspan></text>
      </g>
     </g>
     <g class="com.sun.star.drawing.CustomShape">
      <g id="id30">
       <path fill="rgb(174,207,0)" stroke="none" d="M 15450,2600 C 15648,2600 15800,2752 15800,2950 15800,3148 15648,3300 15450,3300 15252,3300 15100,3148 15100,2950 15100,2752 15252,2600 15450,2600 Z M 15100,2600 L 15100,2600 Z M 15801,3301 L 15801,3301 Z"/>
       <path fill="none" stroke="rgb(51,51,51)" d="M 15450,2600 C 15648,2600 15800,2752 15800,2950 15800,3148 15648,3300 15450,3300 15252,3300 15100,3148 15100,2950 15100,2752 15252,2600 15450,2600 Z"/>
       <text class="TextShape"><tspan class="TextParagraph" font-family="Arial, sans-serif" font-size="494px" font-weight="700"><tspan class="TextPosition" x="15240" y="3124"><tspan fill="rgb(0,0,0)" stroke="none">M</tspan></tspan></tspan></text>
      </g>
     </g>
     <g class="com.sun.star.drawing.CustomShape">
      <g id="id31">
       <path fill="rgb(197,0,11)" stroke="none" d="M 15450,4200 L 15100,4200 15100,3500 15800,3500 15800,4200 15450,4200 Z"/>
       <path fill="none" stroke="rgb(51,51,51)" d="M 15450,4200 L 15100,4200 15100,3500 15800,3500 15800,4200 15450,4200 Z"/>
       <text class="TextShape"><tspan class="TextParagraph" font-family="Arial, sans-serif" font-size="370px" font-weight="700"><tspan class="TextPosition" x="15183" y="3982"><tspan fill="rgb(0,0,0)" stroke="none">DB</tspan></tspan></tspan></text>
      </g>
     </g>
     <g class="com.sun.star.drawing.TextShape">
      <g id="id32">
       <text class="TextShape"><tspan class="TextParagraph" font-family="Arial, sans-serif" font-size="388px" font-weight="400"><tspan class="TextPosition" x="16150" y="2176"><tspan fill="rgb(0,0,0)" stroke="none">Client</tspan></tspan></tspan></text>
      </g>
     </g>
     <g class="com.sun.star.drawing.TextShape">
      <g id="id33">
       <text class="TextShape"><tspan class="TextParagraph" font-family="Arial, sans-serif" font-size="388px" font-weight="400"><tspan class="TextPosition" x="16151" y="3077"><tspan fill="rgb(0,0,0)" stroke="none">Middleware</tspan></tspan></tspan></text>
      </g>
     </g>
     <g class="com.sun.star.drawing.TextShape">
      <g id="id34">
       <text class="TextShape"><tspan class="TextParagraph" font-family="Arial, sans-serif" font-size="388px" font-weight="400"><tspan class="TextPosition" x="16151" y="3977"><tspan fill="rgb(0,0,0)" stroke="none">Database</tspan></tspan></tspan></text>
      </g>
     </g>
    </g>
   </g>
  </g>
 </g>
</svg>